<?xml version="1.0" standalone="no"?>
<!DOCTYPE svg PUBLIC "-//W3C//DTD SVG 20010904//EN"
 "http://www.w3.org/TR/2001/REC-SVG-20010904/DTD/svg10.dtd">
<svg version="1.0" xmlns="http://www.w3.org/2000/svg"
 width="512.000000pt" height="512.000000pt" viewBox="0 0 512.000000 512.000000"
 preserveAspectRatio="xMidYMid meet">
<metadata>
Created by potrace 1.16, written by Peter Selinger 2001-2019
</metadata>
<g transform="translate(0.000000,512.000000) scale(0.100000,-0.100000)"
fill="#000000" stroke="none">
<path d="M2415 4793 c-165 -14 -376 -56 -525 -105 -79 -25 -333 -129 -404
-165 -249 -125 -459 -376 -564 -675 -39 -109 -59 -217 -72 -378 -5 -69 -17
-154 -25 -190 -9 -36 -16 -103 -17 -150 -2 -112 19 -158 115 -259 98 -101 107
-116 107 -175 0 -45 -14 -74 -155 -332 -86 -155 -158 -297 -161 -316 -11 -70
58 -139 152 -154 89 -13 141 -72 130 -148 -21 -145 -22 -137 23 -193 36 -46
40 -55 31 -78 -21 -55 -13 -82 45 -145 74 -80 74 -84 44 -240 -10 -56 -10 -73
4 -121 41 -140 167 -229 325 -229 68 0 81 4 347 100 122 44 216 51 279 20 120
-58 262 -291 305 -502 13 -61 34 -89 53 -70 9 9 6 36 -9 109 -41 193 -122 352
-234 458 l-52 49 59 54 c57 51 178 134 395 272 126 79 226 175 262 250 15 30
46 137 71 238 36 152 41 182 28 180 -12 -2 -27 -45 -54 -153 -78 -307 -145
-383 -503 -579 -154 -84 -350 -173 -610 -276 -229 -92 -272 -103 -359 -98 -86
6 -148 32 -199 84 -68 71 -80 143 -47 285 12 50 12 62 -4 103 -10 25 -37 68
-62 95 -59 66 -57 113 6 146 39 20 217 48 259 40 34 -7 34 -6 19 17 -13 18
-24 22 -51 20 -23 -2 -69 10 -129 34 -60 24 -115 39 -156 42 -60 4 -63 6 -56
26 18 53 16 123 -5 163 -25 50 -51 67 -125 84 -99 22 -148 70 -133 130 4 13
57 114 118 224 163 294 190 348 196 394 7 55 -15 113 -78 197 l-49 67 6 132
c4 73 4 144 0 159 -12 49 -26 16 -27 -67 -1 -45 -4 -111 -8 -147 l-6 -65 -30
39 c-40 52 -45 134 -17 283 11 59 25 164 31 233 6 69 22 172 36 230 30 122
109 295 182 397 86 122 227 258 338 328 17 10 -20 -34 -82 -98 -162 -169 -291
-368 -349 -541 -28 -82 -30 -99 -7 -94 9 2 23 25 34 56 63 186 198 386 398
590 158 160 313 240 617 316 293 73 704 86 984 30 188 -38 459 -153 640 -273
190 -125 369 -317 465 -496 19 -36 22 -52 14 -66 -17 -32 -42 -22 -68 27 -73
137 -280 404 -313 404 -30 0 -20 -26 33 -87 119 -135 204 -264 299 -454 68
-136 105 -257 120 -399 16 -153 22 -140 -63 -140 -44 0 -80 5 -89 13 -22 17
-32 135 -12 161 22 31 17 65 -15 97 -38 38 -74 38 -112 0 -24 -24 -29 -38 -29
-76 0 -39 -2 -45 -14 -36 -18 15 -48 3 -44 -18 4 -20 38 -27 50 -9 6 8 8 -9 4
-50 -7 -73 -10 -82 -36 -82 -16 0 -18 -8 -16 -80 2 -44 6 -83 10 -87 4 -5 6
25 5 66 -2 71 -1 74 24 88 25 13 27 18 28 86 0 40 4 81 9 92 7 18 8 18 15 -8
4 -16 5 -58 2 -94 -4 -53 -10 -70 -33 -94 -26 -27 -27 -32 -16 -62 14 -39 15
-86 3 -106 -9 -14 -118 -34 -133 -25 -4 3 -8 92 -8 199 0 189 -1 194 -22 209
l-22 16 34 28 c27 24 35 38 39 78 l6 49 45 0 c35 0 45 -4 48 -17 3 -15 -4 -18
-37 -18 -23 0 -41 -4 -41 -10 0 -5 23 -10 51 -10 l51 0 -7 30 c-6 26 -3 31 22
41 41 15 63 39 63 66 0 21 4 24 33 21 24 -2 31 1 28 12 -2 8 -4 29 -6 45 -2
17 -3 32 -4 34 -1 3 -8 -4 -16 -15 -17 -22 -20 -12 -4 14 14 23 -62 156 -186
324 -246 333 -501 495 -890 563 -137 25 -484 25 -640 1 -283 -44 -586 -153
-788 -285 -69 -45 -134 -108 -123 -119 3 -2 47 22 98 56 188 121 399 214 606
266 201 51 281 60 537 60 209 0 253 -3 342 -22 298 -65 502 -180 728 -413 113
-116 193 -222 259 -341 36 -65 37 -68 20 -93 -11 -17 -15 -37 -11 -59 3 -22 0
-42 -9 -55 -14 -20 -24 -21 -148 -21 -113 0 -135 -2 -140 -16 -10 -25 2 -34
48 -34 l42 0 -6 -51 c-7 -53 -27 -79 -61 -79 -37 0 -49 38 -49 157 0 62 2 113
5 113 3 0 17 -7 30 -16 19 -12 42 -15 90 -12 61 4 68 7 107 45 31 31 39 45 31
55 -6 7 -16 29 -22 49 -17 54 -139 235 -207 308 -117 127 -316 266 -467 328
-104 42 -359 102 -335 78 3 -3 59 -18 124 -34 121 -30 231 -66 248 -82 6 -5 1
-18 -12 -32 -22 -23 -22 -25 -22 -454 l0 -431 -118 -120 c-127 -129 -150 -142
-229 -129 -35 6 -93 50 -93 71 0 6 -15 18 -32 26 -47 22 -70 69 -76 156 l-5
74 44 43 c25 23 55 50 67 59 21 17 22 24 22 176 0 195 3 202 90 202 51 0 61
-3 79 -26 l20 -25 -25 -37 c-40 -59 -73 -71 -66 -24 8 56 -70 72 -81 16 -6
-32 2 -64 15 -64 6 0 8 6 5 14 -5 12 0 12 26 5 65 -18 84 -12 112 34 31 54 31
58 -1 96 -24 29 -31 31 -89 31 -96 0 -100 -8 -108 -212 l-7 -163 -27 -20 c-15
-11 -43 -35 -61 -52 l-34 -33 4 -104 c3 -100 4 -106 32 -135 35 -36 32 -37
-25 -11 -56 25 -96 25 -161 0 -47 -18 -77 -20 -267 -20 l-214 0 -82 83 c-45
45 -98 96 -118 113 -50 42 -48 56 6 52 l42 -3 2 44 c3 48 -16 81 -47 81 -43 0
-57 -74 -17 -90 21 -9 21 -9 -4 -9 -45 -1 -54 55 -14 94 29 30 45 31 76 6 20
-16 23 -27 21 -71 -2 -51 0 -54 47 -101 26 -27 53 -49 59 -49 15 0 42 29 42
45 0 28 -38 60 -72 60 l-33 0 -3 89 -3 88 41 35 c22 20 54 62 70 94 17 32 39
63 49 69 11 6 87 10 175 10 l156 0 70 -72 70 -72 0 -163 c0 -97 -4 -164 -10
-168 -7 -4 -10 51 -10 159 0 99 -4 167 -10 171 -7 4 -10 -61 -10 -189 0 -107
-3 -202 -6 -211 -12 -30 -57 -44 -120 -38 -48 5 -64 12 -86 35 -19 21 -33 28
-47 23 -11 -3 -35 1 -55 9 -27 11 -37 23 -45 53 -10 37 -66 113 -103 141 -32
23 -23 68 20 99 49 37 52 41 52 86 0 30 -4 37 -20 37 -24 0 -26 -25 -3 -38 15
-9 14 -12 -8 -33 -14 -13 -37 -33 -51 -44 -15 -11 -30 -35 -33 -52 -6 -30 -1
-38 49 -91 35 -37 62 -76 72 -106 20 -57 54 -86 105 -86 30 0 42 -6 59 -30 21
-29 23 -30 105 -30 81 0 85 1 116 32 63 63 70 95 62 283 l-6 166 -70 75 -69
74 -178 0 c-201 0 -187 5 -245 -85 -18 -29 -44 -60 -57 -69 -13 -9 -39 -28
-58 -41 -19 -14 -58 -36 -86 -49 -53 -25 -74 -57 -74 -113 0 -13 -6 -26 -13
-29 -10 -3 -12 -21 -10 -62 8 -99 17 -115 99 -172 69 -48 124 -108 124 -137 0
-7 19 -32 43 -54 40 -40 42 -44 42 -103 1 -49 6 -71 28 -108 14 -25 34 -49 44
-53 20 -9 116 -23 210 -31 60 -5 64 -4 93 24 37 38 40 84 7 132 -33 50 -72 68
-134 62 l-53 -4 0 -78 c0 -76 -12 -112 -23 -70 -7 26 -27 26 -34 0 -13 -50
-84 -2 -103 71 -32 119 56 191 256 207 72 7 85 11 117 39 48 42 106 57 182 48
33 -4 82 -8 108 -9 36 -2 53 -7 65 -23 44 -54 143 -74 204 -42 15 8 81 68 148
134 l122 119 -7 427 c-7 408 -7 428 11 453 11 14 23 26 28 26 16 0 147 -79
219 -134 l68 -51 -55 -52 c-37 -36 -62 -53 -80 -53 -29 0 -33 15 -12 39 30 33
29 65 -2 99 -50 54 -113 40 -133 -28 -12 -38 -11 -42 14 -68 l27 -28 -23 -22
c-20 -21 -22 -33 -25 -165 -3 -120 -1 -145 12 -156 9 -7 23 -11 31 -7 12 4 15
27 15 121 0 70 -4 115 -10 115 -11 0 -13 39 -4 64 5 13 22 16 77 16 l71 0 56
55 56 55 66 -68 c37 -37 89 -100 117 -141 l51 -74 -35 -24 c-43 -29 -46 -29
-79 6 l-27 28 25 17 c14 9 30 25 36 37 13 23 -1 44 -53 81 l-29 21 -58 -42
c-52 -36 -62 -40 -86 -31 -33 13 -90 -3 -104 -30 -32 -60 12 -135 75 -128 33
4 34 2 37 -31 3 -31 7 -37 39 -46 68 -19 69 -22 69 -181 l0 -143 33 -33 c17
-18 42 -40 54 -48 22 -15 22 -17 24 -295 1 -244 -1 -285 -16 -320 -17 -39 -17
-41 4 -77 29 -51 27 -74 -14 -141 -19 -32 -35 -62 -35 -66 0 -13 74 -78 107
-94 15 -8 40 -17 56 -21 22 -5 27 -12 27 -36 l0 -30 -82 0 c-67 0 -86 4 -102
19 -33 31 -59 29 -99 -6 -20 -18 -79 -57 -130 -87 -93 -55 -94 -56 -116 -116
-37 -101 -122 -144 -191 -98 -39 26 -48 54 -27 82 12 16 18 17 48 6 46 -16 87
0 102 41 9 24 28 39 81 66 97 49 169 105 207 159 32 47 69 139 69 173 0 36 12
51 39 51 19 0 32 8 44 29 9 15 14 31 10 35 -12 12 -20 6 -19 -16 1 -20 -4 -23
-33 -23 -19 0 -36 6 -38 13 -3 6 2 12 11 12 21 0 21 28 0 51 -12 14 -14 26 -6
61 9 42 8 44 -27 75 -31 28 -34 34 -24 51 10 16 9 23 -1 31 -9 8 -21 3 -47
-20 -52 -47 -87 -61 -149 -62 -44 0 -68 6 -109 29 -100 54 -151 143 -151 264
0 87 -38 106 -97 48 -47 -45 -76 -42 -222 27 -111 52 -133 59 -202 63 -96 6
-129 -2 -129 -28 0 -18 5 -20 53 -14 77 9 144 -9 287 -76 69 -33 135 -60 146
-60 12 0 42 11 67 25 44 23 64 22 49 -2 -10 -16 -80 -43 -112 -43 -15 0 -71
22 -126 48 -172 84 -265 103 -345 69 -31 -13 -40 -13 -68 -1 -52 22 -226 18
-278 -5 -47 -22 -73 -62 -73 -115 0 -46 24 -70 64 -62 32 7 71 36 48 36 -8 0
-12 17 -12 46 0 59 -24 55 -28 -5 -3 -33 -7 -42 -20 -39 -11 2 -18 15 -20 35
-5 49 23 61 143 64 73 1 110 -2 136 -14 35 -16 37 -15 90 13 40 22 68 29 109
30 73 0 115 -13 240 -73 107 -52 141 -59 230 -47 30 4 35 2 38 -16 3 -20 -4
-23 -66 -34 -74 -14 -84 -11 -203 55 -57 32 -181 59 -232 51 -45 -8 -107 -37
-128 -62 -17 -21 -29 -112 -35 -271 -6 -138 3 -170 59 -203 71 -44 195 -13
239 58 19 31 23 54 26 143 4 89 2 107 -12 112 -8 3 -18 2 -21 -3 -3 -5 -12 -7
-20 -3 -10 3 -15 -1 -15 -12 0 -9 9 -19 20 -22 18 -5 20 -14 20 -85 0 -63 -4
-88 -20 -113 -42 -69 -145 -87 -202 -36 l-33 30 3 183 c3 179 4 183 28 208 24
24 29 25 144 23 98 -1 126 -5 152 -20 50 -29 59 -55 52 -150 -4 -45 -4 -93 0
-107 9 -37 61 -66 117 -66 41 0 51 -4 79 -36 21 -24 29 -42 24 -53 -16 -37
-15 -67 3 -88 27 -33 64 -38 96 -13 47 37 33 102 -26 123 -9 4 -20 15 -24 24
-15 42 -78 124 -97 128 -12 3 -37 6 -56 7 -30 3 -35 7 -35 28 0 23 3 25 40 23
77 -5 83 -9 124 -91 33 -65 46 -80 84 -100 51 -27 67 -55 67 -118 0 -62 -22
-95 -94 -140 -34 -22 -86 -62 -117 -91 -31 -28 -67 -57 -80 -64 -37 -20 -148
-17 -188 5 -31 17 -33 20 -27 57 6 38 -1 48 -20 29 -18 -18 -483 203 -526 250
-36 39 -51 100 -45 183 4 68 0 79 -23 52 -8 -9 -30 -15 -56 -15 -42 0 -44 1
-44 29 0 16 -14 64 -30 105 -17 42 -34 96 -39 120 -6 32 -18 54 -44 78 -21 20
-40 50 -47 76 -15 57 -70 117 -139 152 -83 41 -104 69 -109 138 -3 46 0 65 17
93 15 25 21 51 21 97 0 57 2 62 21 62 12 0 40 16 62 36 22 20 63 47 92 59 73
33 105 74 105 135 0 46 1 48 40 64 33 13 70 15 244 9 l206 -6 80 -82 c67 -69
80 -88 80 -115 0 -26 9 -42 43 -75 35 -33 39 -41 22 -37 -26 5 -40 -21 -21
-37 18 -15 43 -4 50 22 5 16 -1 29 -23 47 -35 31 -53 64 -45 83 9 24 -13 57
-94 140 l-77 77 125 0 125 0 -3 -134 c-3 -108 -1 -139 12 -165 9 -17 23 -31
31 -31 19 0 19 14 0 30 -12 10 -15 39 -15 139 l0 127 31 30 c17 16 40 45 52
64 28 46 34 50 90 50 26 0 47 5 47 10 0 6 -29 10 -66 10 -57 0 -65 2 -62 18 5
25 107 31 125 6 15 -20 28 -12 20 11 -4 10 -20 15 -49 15 -24 0 -52 3 -64 6
-32 8 -55 -21 -52 -66 1 -28 -5 -47 -23 -70 l-24 -32 -210 1 c-115 1 -212 4
-217 7 -4 3 -8 23 -8 44 0 30 -8 48 -31 75 -29 33 -35 35 -90 35 -55 0 -59 2
-59 23 0 12 -10 37 -21 56 -20 33 -20 35 -3 48 34 25 58 14 130 -59 39 -40 78
-86 88 -101 34 -56 68 -67 203 -67 117 0 123 1 153 26 17 15 49 53 70 84 44
65 54 69 154 60 85 -7 106 -27 106 -100 0 -40 4 -50 20 -55 28 -9 40 2 40 35
0 29 -20 59 -75 111 -28 28 -34 29 -122 29 l-93 0 -33 -47 c-17 -27 -46 -63
-63 -80 l-32 -33 -133 0 c-131 0 -133 0 -161 27 -15 15 -28 31 -28 36 0 5 -35
45 -79 88 -58 59 -85 79 -105 79 -26 0 -65 -17 -77 -34 -4 -4 -10 -3 -14 4
-25 41 -123 23 -123 -23 0 -12 -6 -38 -13 -58 l-13 -37 -91 2 c-85 1 -94 -1
-154 -34 -86 -46 -141 -103 -182 -185 -32 -65 -34 -76 -34 -170 0 -117 15
-154 96 -240 l49 -52 0 -75 c0 -94 20 -128 105 -174 83 -46 120 -84 140 -143
11 -34 29 -62 56 -84 26 -23 39 -42 39 -59 0 -13 13 -63 29 -110 19 -57 30
-111 32 -164 l4 -79 -46 -3 c-43 -3 -47 -1 -59 28 -18 44 -3 94 30 98 50 6 55
11 31 35 -11 13 -21 36 -21 50 0 51 -28 96 -106 170 -76 72 -77 74 -82 130 -2
32 -8 60 -13 63 -13 8 -11 -113 2 -139 6 -12 45 -53 86 -92 67 -63 76 -75 84
-120 9 -47 8 -51 -16 -68 -21 -16 -25 -27 -26 -70 l-1 -52 -9 59 c-10 66 -24
90 -116 195 -71 81 -95 142 -86 219 7 60 -18 87 -76 85 -52 -2 -64 23 -49 107
9 51 13 59 25 49 18 -16 38 3 29 26 -4 12 -13 15 -31 11 -23 -6 -25 -4 -25 32
0 47 -13 66 -117 173 l-83 86 0 56 c0 162 122 354 288 454 285 170 680 275
1026 272 130 0 170 -9 174 -37 6 -40 38 -52 140 -52 60 0 91 4 87 10 -3 6 -45
10 -93 10 -48 0 -93 4 -100 9 -7 4 -16 21 -21 37 -7 28 -10 29 -92 38 -111 12
-357 -7 -516 -39 -317 -65 -645 -217 -767 -358 -111 -126 -176 -331 -131 -417
8 -15 32 -42 52 -59 21 -17 59 -56 84 -87 55 -66 68 -124 48 -223 -10 -53 -9
-64 5 -86 10 -16 14 -34 10 -50 -3 -14 -3 -36 0 -49 7 -27 55 -51 85 -41 17 5
22 0 32 -37 17 -63 36 -97 88 -153 91 -97 101 -116 101 -182 0 -64 21 -106 59
-118 14 -4 21 -19 26 -58 12 -85 27 -110 164 -255 157 -167 187 -192 249 -200
38 -6 48 -11 50 -29 2 -15 -8 -29 -40 -50 -44 -29 -63 -57 -73 -105 -6 -32
-57 -61 -170 -98 -87 -28 -132 -51 -167 -85 -28 -25 -28 -28 -28 -145 0 -73 4
-120 10 -120 6 0 10 47 10 120 l0 119 43 29 c23 16 89 46 147 66 123 44 168
70 174 99 3 12 7 34 10 49 7 34 64 77 76 58 11 -18 40 -4 40 20 0 11 -4 20
-10 20 -15 0 -12 40 3 45 6 2 63 5 125 8 l114 4 -7 -63 c-6 -60 -5 -65 21 -89
l27 -25 -39 -197 c-36 -182 -42 -200 -73 -237 -31 -38 -33 -44 -29 -102 l4
-62 -61 -35 c-112 -65 -126 -70 -151 -58 -28 13 -51 6 -65 -20 -11 -21 1 -53
24 -62 16 -6 18 -5 175 82 102 57 116 62 137 51 30 -16 84 9 141 66 32 32 48
59 69 125 32 99 34 123 9 150 -18 20 -18 23 4 132 12 62 22 119 22 128 0 9 9
24 20 34 18 16 29 58 45 163 6 35 11 43 33 48 15 4 40 14 56 22 l30 15 -16
-25 c-22 -33 -61 -166 -54 -184 7 -17 45 -19 51 -1 2 6 14 50 26 97 19 76 27
90 69 131 50 49 136 89 193 89 18 0 52 10 77 21 91 41 137 109 147 217 6 68
14 82 47 82 17 0 18 -6 13 -72 -8 -88 -50 -180 -106 -231 -21 -19 -77 -58
-125 -86 -76 -45 -89 -49 -111 -39 -45 20 -80 -5 -121 -88 -43 -87 -41 -119
13 -163 l35 -29 -36 -134 c-22 -81 -43 -138 -54 -146 -65 -48 -203 -229 -217
-285 -4 -12 -5 -54 -3 -92 3 -67 4 -70 28 -70 24 0 25 2 30 92 l5 91 69 102
c75 109 106 140 141 140 38 0 55 -30 55 -97 0 -55 -2 -60 -21 -59 -16 1 -32
-15 -58 -55 -20 -31 -51 -76 -68 -99 l-33 -43 0 -484 c0 -320 3 -482 10 -478
6 4 10 171 10 468 l0 463 48 47 c26 26 55 47 63 47 15 0 39 19 39 31 0 4 -9 9
-20 12 -26 7 -25 32 3 60 l22 22 9 -64 c9 -63 9 -65 -19 -87 -27 -22 -28 -24
-10 -30 30 -11 35 -23 35 -97 0 -55 -3 -69 -17 -74 -28 -10 -66 -42 -85 -71
-24 -36 -26 -203 -3 -222 12 -10 15 -55 17 -256 4 -326 21 -332 28 -10 5 236
5 239 -17 269 -19 26 -23 44 -23 110 l0 80 40 39 c23 21 45 38 50 38 6 0 10
-26 10 -58 0 -39 7 -70 21 -96 19 -36 19 -39 3 -57 -22 -24 -59 -8 -51 23 3
11 3 26 0 34 -9 24 -33 -4 -33 -38 0 -24 6 -32 30 -41 29 -11 30 -14 31 -72 1
-33 2 -71 3 -85 1 -14 3 -41 4 -60 2 -27 5 -31 12 -20 5 8 10 60 10 116 0 86
3 103 19 118 10 9 29 16 42 15 48 -4 67 1 93 27 22 23 26 35 26 86 0 37 -4 57
-10 53 -5 -3 -10 -26 -10 -51 0 -70 -60 -116 -110 -84 -12 8 -9 10 12 10 96 0
121 93 39 142 l-38 23 67 0 c54 0 72 4 90 20 40 36 52 73 53 165 1 62 4 87 13
83 6 -2 14 3 17 11 4 11 1 13 -11 9 -16 -6 -16 -5 0 13 26 30 7 90 -35 112
-17 10 -50 34 -73 55 l-42 38 -4 95 -3 95 -52 49 c-29 26 -53 53 -53 60 0 7 6
5 16 -4 10 -10 33 -16 62 -16 47 0 47 0 47 -33 0 -26 4 -33 23 -35 30 -5 52
14 52 44 0 36 -38 55 -103 53 -90 -3 -116 37 -52 79 19 12 35 27 35 33 0 6 27
10 73 9 98 -2 97 -2 97 18 0 14 -2 15 -10 2 -7 -11 -12 -12 -21 -3 -13 13 -4
33 16 33 9 0 12 6 9 15 -9 22 -44 19 -44 -3 0 -27 -20 -42 -58 -42 l-34 0 27
32 c29 35 164 116 207 125 15 3 66 2 113 -2 78 -6 87 -9 95 -31 6 -14 21 -26
42 -32 18 -4 34 -16 36 -25 5 -25 -59 -23 -83 3 -13 14 -31 20 -61 20 -148 0
-264 -149 -264 -339 0 -85 10 -115 57 -158 l36 -34 -6 -112 c-4 -66 -14 -140
-27 -182 -17 -61 -20 -97 -20 -292 0 -142 4 -223 10 -223 6 0 10 76 10 207 0
192 2 213 25 288 40 131 55 220 55 320 l0 93 38 12 c43 14 72 37 72 57 0 9 -6
7 -19 -6 -19 -19 -78 -37 -88 -27 -13 12 8 35 39 41 18 4 41 15 52 24 13 12
47 18 130 22 99 5 119 10 176 38 36 18 81 44 100 58 l35 26 -24 -26 c-30 -33
-92 -70 -146 -87 -22 -7 -53 -24 -68 -39 -60 -55 -140 -259 -174 -444 -12 -66
-17 -147 -17 -287 -1 -237 15 -316 99 -487 50 -103 73 -130 89 -105 3 5 -18
56 -45 115 -83 177 -92 227 -93 472 -1 232 10 308 65 477 33 102 95 227 119
239 8 4 41 19 73 33 70 31 110 62 158 127 l37 48 27 -29 27 -28 -22 -42 c-32
-62 -103 -125 -194 -169 -45 -21 -89 -41 -98 -45 -19 -6 -25 -36 -8 -36 18 0
111 50 182 97 71 46 111 91 148 160 l22 42 -32 57 c-38 65 -31 85 20 64 71
-29 83 -118 32 -223 -38 -76 -77 -115 -166 -164 -64 -35 -87 -62 -48 -55 83
15 210 119 252 207 35 72 40 172 10 220 -12 19 -25 35 -28 35 -4 0 -20 11 -36
24 l-30 23 36 36 c22 22 49 67 69 116 30 73 49 95 63 73 2 -4 -11 -48 -31 -96
l-36 -88 23 -73 c26 -83 24 -168 -5 -225 -13 -24 -14 -35 -5 -44 8 -8 15 -6
26 9 39 53 51 202 21 281 -15 40 -14 42 29 155 76 196 110 342 121 514 5 86 3
106 -13 135 -14 27 -19 66 -23 176 -6 130 -8 144 -32 180 -14 21 -34 68 -44
104 -10 36 -41 119 -68 185 -27 66 -55 140 -63 165 -42 127 -230 440 -265 440
-10 0 -20 -4 -23 -9 -3 -5 -61 46 -128 113 -133 132 -213 191 -383 284 -216
118 -438 188 -674 212 -95 9 -372 11 -466 3z m-340 -419 c19 -8 45 -55 45 -84
0 -33 -53 -80 -90 -80 -69 0 -104 86 -59 144 21 26 65 35 104 20z m1323 -120
c2 -17 -3 -22 -27 -26 -26 -4 -31 -1 -31 17 0 28 9 37 35 33 12 -2 21 -12 23
-24z m-1446 -29 c49 -58 115 -54 176 12 30 32 37 35 74 30 58 -8 88 -40 88
-94 l0 -43 -135 0 c-97 0 -146 -4 -171 -15 -35 -14 -36 -14 -65 15 -36 35 -98
54 -148 45 -159 -30 -255 -214 -190 -366 17 -40 25 -48 40 -44 17 6 19 0 19
-59 0 -36 -4 -67 -9 -70 -15 -9 -91 83 -119 144 -53 112 -26 259 65 361 87 96
169 132 278 123 63 -6 73 -9 97 -39z m2299 -337 c27 -54 49 -104 49 -112 0 -8
-17 -28 -37 -44 -43 -34 -44 -25 20 -203 41 -110 72 -250 82 -361 4 -47 12
-81 21 -89 21 -18 18 -76 -5 -89 -34 -18 -120 -12 -148 10 -17 13 -41 20 -69
20 -78 0 -102 -22 -119 -106 l-6 -32 -47 18 c-42 16 -47 21 -50 53 -2 28 1 37
16 41 11 4 32 24 46 46 l26 40 103 0 c144 0 143 -1 139 142 -5 196 -41 378
-107 541 -18 44 -22 63 -13 66 27 9 58 51 58 79 0 18 -24 66 -64 129 -36 56
-62 104 -58 107 9 9 107 -144 163 -256z m-2401 224 c37 -27 62 -81 56 -121 -7
-45 -38 -76 -97 -97 -29 -11 -51 -26 -55 -37 -5 -17 -8 -16 -24 11 -10 17 -28
33 -39 37 -22 7 -59 -9 -78 -34 -32 -44 -22 94 11 158 21 38 78 90 112 101 38
12 83 4 114 -18z m1833 -28 c4 -4 -5 -20 -18 -36 -14 -16 -25 -37 -25 -46 0
-9 33 -48 73 -87 41 -38 82 -82 92 -97 13 -22 25 -28 51 -28 43 0 43 -13 1
-39 -29 -18 -44 -20 -101 -14 -60 5 -69 9 -89 37 -26 38 -45 53 -77 61 -14 4
-28 12 -32 18 -14 21 -9 75 7 81 17 6 20 39 5 66 -8 15 -1 24 37 54 45 35 63
42 76 30z m-153 -74 c27 -27 25 -55 -6 -79 -33 -26 -46 -26 -66 -3 -28 31 -31
59 -9 81 26 26 55 27 81 1z m344 -152 c-7 -10 -52 0 -82 19 l-23 14 33 23 33
23 22 -35 c12 -20 20 -39 17 -44z m-2180 16 c20 -8 21 -53 2 -60 -18 -7 -56
13 -56 29 0 14 20 37 31 37 4 0 14 -3 23 -6z m2661 -246 c23 -51 60 -145 81
-208 20 -63 47 -131 60 -150 19 -31 22 -53 27 -176 4 -112 9 -147 22 -168 15
-23 17 -41 12 -117 -11 -152 -74 -419 -99 -419 -12 0 -9 14 21 115 29 98 52
260 41 290 -5 13 -23 31 -40 40 -38 20 -38 38 0 82 30 33 31 38 28 116 l-3 82
-45 0 -45 0 -2 45 c-5 109 -56 325 -109 456 -13 33 -24 65 -24 70 0 10 20 34
28 34 2 0 23 -42 47 -92z m-2490 62 c0 -18 -33 -26 -47 -12 -6 6 -7 15 -3 22
10 16 50 8 50 -10z m-34 -180 c51 -36 64 -54 72 -98 8 -37 12 -39 -79 25 -70
48 -74 56 -74 121 l0 47 20 -32 c11 -18 38 -46 61 -63z m2214 -20 c36 -40 -18
-105 -65 -80 -46 25 -27 100 25 100 12 0 30 -9 40 -20z m-1914 -160 c60 0 109
-3 109 -7 -1 -38 -14 -51 -57 -56 -28 -3 -61 -16 -88 -36 -24 -17 -47 -31 -53
-31 -21 0 -79 70 -91 111 -7 24 -19 61 -26 82 l-14 38 55 -51 56 -50 109 0z
m1912 -12 c8 -88 32 -108 128 -108 l70 0 -3 -47 -3 -48 -104 -3 c-86 -2 -106
0 -113 12 -14 25 -50 -2 -37 -26 11 -20 1 -46 -27 -69 -16 -13 -16 -12 -6 8 7
12 12 37 12 56 0 21 7 41 20 52 21 19 26 50 10 60 -5 3 -10 44 -10 91 l0 84
29 0 c27 0 28 -2 34 -62z m-2429 -44 c9 -8 16 -19 16 -24 0 -9 -28 -40 -36
-40 -3 0 -14 5 -25 10 -24 13 -25 46 -1 59 23 14 28 14 46 -5z m2350 -83 c6
-10 -22 -37 -29 -29 -8 7 5 38 15 38 5 0 11 -4 14 -9z m-1603 -94 c39 -24 51
-97 22 -129 -12 -13 -30 -18 -70 -18 l-53 0 0 86 0 86 42 -7 c23 -4 50 -12 59
-18z m2106 -13 c-3 -3 -12 -4 -19 -1 -8 3 -5 6 6 6 11 1 17 -2 13 -5z m5 -81
c-3 -34 -13 -56 -31 -75 -25 -25 -26 -31 -28 -150 -2 -146 -27 -283 -79 -426
-43 -121 -153 -347 -180 -370 -4 -4 -4 -2 -1 5 4 6 -23 -9 -60 -33 -83 -55
-140 -74 -229 -76 -81 -3 -234 12 -234 22 0 4 9 19 21 34 19 25 25 26 108 26
53 0 92 -5 99 -12 11 -11 53 -5 162 22 58 15 127 65 150 109 27 54 25 69 -11
89 -17 9 -45 28 -61 41 -27 22 -29 28 -23 67 5 38 3 44 -24 65 -16 13 -32 35
-36 49 -5 22 2 32 48 72 30 26 57 44 61 41 11 -12 6 -41 -9 -47 -20 -7 -19
-50 1 -70 20 -21 156 -23 172 -3 6 7 13 42 15 77 3 53 7 64 24 71 29 10 43 53
46 137 2 70 0 75 -26 98 -26 22 -37 24 -126 24 l-98 0 -28 39 c-23 34 -26 46
-20 83 10 59 29 78 80 78 41 0 43 -1 48 -36 4 -20 2 -45 -3 -55 -14 -26 -12
-37 9 -58 40 -40 97 8 66 55 -8 13 -20 24 -25 24 -6 0 -10 9 -10 20 0 18 7 20
80 20 78 0 80 1 95 30 8 16 15 36 15 45 0 9 9 15 24 15 22 0 23 -3 18 -47z
m-552 -47 c0 -31 -3 -34 -37 -40 -21 -3 -51 -13 -67 -21 -15 -8 -30 -15 -32
-15 -2 0 -4 20 -4 44 l0 45 48 6 c26 4 52 8 57 10 27 9 35 3 35 -29z m-747
-33 c69 -67 112 -95 164 -108 l43 -11 -28 -34 -28 -33 -53 34 c-44 29 -51 38
-46 57 7 27 -9 22 -25 -8 -9 -16 -2 -25 48 -59 107 -72 143 -132 129 -218 -10
-61 -45 -101 -122 -138 -38 -19 -90 -46 -115 -61 -25 -15 -39 -21 -32 -13 7 8
49 37 94 64 93 57 117 85 125 143 12 89 -22 148 -109 193 -31 16 -45 33 -71
87 -41 85 -74 106 -162 98 -84 -6 -108 -44 -64 -100 16 -21 29 -26 63 -26 46
0 62 -13 121 -95 22 -32 17 -28 -26 18 -51 53 -58 57 -96 55 -57 -2 -89 21
-98 70 -3 21 -1 50 4 66 6 15 11 37 11 49 0 21 3 22 110 21 l111 -1 52 -50z
m815 -72 c137 -70 157 -247 40 -358 -41 -39 -76 -53 -134 -53 -48 0 -94 19
-131 53 -28 25 -29 39 -4 61 18 16 21 16 55 -8 73 -49 151 -42 205 19 56 65
51 157 -13 213 -41 36 -82 47 -121 32 -37 -14 -25 -24 31 -25 40 0 51 -6 80
-38 41 -44 45 -94 14 -145 -37 -60 -128 -78 -176 -34 -11 10 -25 17 -32 14
-17 -5 -4 25 14 32 13 5 12 10 -3 32 -17 27 -17 27 7 19 14 -4 30 -10 37 -12
10 -4 45 56 38 65 -1 1 -14 -2 -28 -9 -35 -16 -75 -4 -89 26 -15 32 14 100 51
120 38 20 115 18 159 -4z m-410 -13 c15 -19 24 -81 14 -96 -10 -14 -70 -31
-114 -32 -35 0 -88 45 -88 76 0 20 5 24 33 24 17 0 50 9 72 19 48 23 69 25 83
9z m908 -107 c-13 -115 -55 -270 -106 -389 -29 -67 -54 -121 -56 -119 -2 1 13
45 33 97 45 121 81 280 89 397 7 88 8 92 27 82 17 -10 19 -18 13 -68z m-2356
28 c0 -28 -3 -31 -22 -25 -13 3 -33 6 -45 6 -18 0 -23 6 -23 25 0 23 4 25 45
25 44 0 45 -1 45 -31z m2204 -18 c15 -17 17 -30 11 -83 -11 -100 -13 -101
-106 -96 -43 3 -79 1 -79 -4 0 -4 -7 -8 -16 -8 -14 0 -15 6 -8 38 5 20 9 64
10 97 1 33 2 63 3 68 0 4 39 7 84 7 70 0 87 -3 101 -19z m-911 -39 c52 -52 63
-87 53 -157 -8 -50 -49 -106 -97 -131 -41 -21 -44 -17 -11 11 84 71 82 233 -4
290 -21 13 -24 19 -13 26 21 13 21 13 72 -39z m-1290 -51 c26 -73 80 -115 256
-195 83 -38 156 -75 162 -82 21 -25 -2 -34 -93 -34 l-90 0 -50 54 c-29 32 -67
61 -91 71 -98 39 -165 114 -181 203 -5 31 -5 32 32 32 36 0 38 -2 55 -49z
m-123 -3 c16 -66 47 -120 85 -148 19 -14 43 -36 53 -50 19 -26 19 -26 -5 -54
l-24 -29 -75 79 c-83 87 -98 114 -109 192 l-7 52 36 0 c33 0 36 -2 46 -42z
m1160 -23 c26 -32 -13 -81 -47 -59 -24 15 -27 38 -8 58 20 20 39 20 55 1z
m1090 -105 c0 -5 -20 -10 -45 -10 -25 0 -45 5 -45 10 0 6 20 10 45 10 25 0 45
-4 45 -10z m0 -55 c0 -11 -12 -15 -45 -15 -33 0 -45 4 -45 15 0 11 12 15 45
15 33 0 45 -4 45 -15z m-1999 -77 c91 -88 90 -88 218 -88 100 0 112 -2 101
-15 -15 -18 -182 -21 -240 -5 -41 11 -166 132 -156 149 12 18 22 13 77 -41z
m1999 27 c0 -11 -12 -15 -45 -15 -33 0 -45 4 -45 15 0 11 12 15 45 15 33 0 45
-4 45 -15z m-270 -25 c0 -11 -7 -20 -15 -20 -19 0 -19 -30 -1 -66 17 -32 13
-44 -14 -44 -35 0 -51 28 -48 84 3 53 5 54 71 65 4 0 7 -8 7 -19z m-1658 -145
c15 -4 80 -5 146 -3 97 2 124 6 139 21 22 19 33 14 33 -18 0 -33 -57 -45 -212
-45 -133 0 -136 0 -174 29 -21 16 -59 49 -82 74 -40 40 -42 47 -31 65 13 20
16 19 84 -48 40 -38 83 -72 97 -75z m1338 95 c0 -5 -2 -10 -4 -10 -3 0 -8 5
-11 10 -3 6 -1 10 4 10 6 0 11 -4 11 -10z m-24 -17 c10 -15 32 -19 121 -21
107 -4 109 -4 125 -32 10 -17 28 -31 47 -35 20 -4 31 -13 31 -24 0 -9 5 -22
12 -29 15 -15 54 -16 63 -2 12 19 23 10 29 -26 5 -22 3 -41 -4 -49 -18 -22
-76 -29 -111 -15 -35 15 -49 37 -49 79 0 29 -2 30 -20 19 -25 -16 -49 -3 -68
35 -13 27 -14 27 -128 27 -114 0 -117 0 -182 -37 -37 -20 -82 -47 -99 -60 -22
-16 -33 -20 -33 -11 0 26 31 58 88 88 31 17 80 48 107 70 28 21 52 39 54 39 2
1 10 -7 17 -16z m397 -34 c-6 -23 -17 -15 -28 19 -6 21 -5 23 13 13 14 -7 18
-17 15 -32z m-1258 -114 c-3 -27 -10 -65 -16 -82 -10 -30 -14 -33 -49 -33 -50
0 -55 17 -40 125 l12 83 49 -22 50 -21 -6 -50z m449 49 c18 -7 22 -49 5 -59
-5 -4 -21 -4 -35 -1 -17 5 -24 13 -24 30 0 30 22 42 54 30z m796 -9 c0 -8 -7
-15 -15 -15 -8 0 -15 7 -15 15 0 8 7 15 15 15 8 0 15 -7 15 -15z m-1140 -29
c0 -11 -5 -48 -10 -81 -11 -65 -27 -85 -72 -85 -31 0 -33 -2 -16 -29 9 -15 6
-43 -12 -135 -13 -63 -26 -114 -28 -111 -5 4 13 109 25 149 3 12 1 17 -7 14
-7 -2 -23 -46 -35 -97 -22 -91 -22 -94 -4 -98 33 -9 24 -69 -20 -138 -43 -67
-59 -85 -87 -101 -25 -15 -12 -28 20 -20 16 4 35 23 52 52 30 51 42 53 21 2
-28 -67 -111 -110 -145 -76 -7 7 -12 31 -12 55 0 33 7 50 31 78 26 29 35 55
55 148 13 61 33 153 44 203 l21 90 44 22 c47 23 56 40 70 143 6 43 8 45 36 41
22 -3 29 -10 29 -26z m1270 -56 c0 -54 -105 -139 -184 -147 -37 -5 -46 -2 -55
16 -14 25 -49 28 -65 6 -9 -13 -28 -15 -91 -13 -75 3 -78 4 -55 17 14 8 62 17
108 19 45 3 82 8 82 13 0 5 -42 9 -92 9 -108 0 -139 -13 -187 -80 -36 -50 -51
-115 -51 -222 l0 -81 -25 23 c-38 36 -49 90 -36 179 14 95 50 170 103 216 69
59 142 70 190 30 21 -18 42 -25 71 -25 23 0 51 -7 61 -15 27 -20 115 -19 145
1 19 14 22 24 19 59 l-3 42 33 -15 c17 -9 32 -23 32 -32z m-920 -191 c0 -37 5
-46 50 -87 l50 -45 0 -100 0 -100 44 -41 c24 -22 57 -53 75 -67 37 -32 45 -89
12 -89 -37 0 -51 -12 -51 -41 0 -24 -4 -29 -25 -29 -25 0 -25 0 -25 98 0 103
-7 145 -21 136 -5 -3 -9 -72 -9 -154 0 -122 -3 -149 -15 -154 -13 -5 -15 30
-15 280 l0 284 -26 10 c-33 13 -101 13 -89 1 6 -5 28 -11 50 -13 40 -3 40 -3
43 -48 l3 -45 -48 48 c-27 26 -52 47 -56 47 -20 0 -1 -32 48 -82 l55 -55 0
-219 c0 -207 -1 -221 -20 -237 -15 -12 -20 -29 -20 -65 0 -51 4 -57 68 -108
35 -28 41 -54 16 -75 -14 -11 -21 -10 -46 4 -16 9 -38 17 -49 17 -18 0 -19 11
-19 325 l0 324 -32 36 c-35 41 -37 56 -13 165 9 41 18 85 21 98 3 14 12 22 24
22 17 0 20 -7 20 -41z m195 -64 c0 -28 -29 -25 -33 3 -3 19 0 23 15 20 10 -2
18 -12 18 -23z m273 -17 c-6 -17 -68 -32 -81 -19 -11 11 -4 15 38 24 37 8 47
7 43 -5z m-888 -199 c0 -16 -4 -29 -10 -29 -5 0 -10 16 -10 36 0 21 4 33 10
29 6 -3 10 -19 10 -36z m-1680 -45 c-36 -8 -100 -9 -100 -2 0 5 26 7 58 7 31
-1 50 -3 42 -5z m2318 -341 l3 -33 -50 0 -51 0 0 36 0 35 48 -3 c45 -3 47 -4
50 -35z m-104 -48 c11 -8 37 -15 58 -15 42 0 47 -11 19 -39 -22 -22 -97 -37
-130 -26 -31 9 -30 68 2 83 29 14 29 14 51 -3z"/>
<path d="M1995 4335 c-14 -13 -25 -31 -25 -40 0 -23 37 -55 65 -55 28 0 65 32
65 55 0 21 -45 65 -65 65 -9 0 -27 -11 -40 -25z"/>
<path d="M2196 4233 c-12 -12 -6 -33 9 -33 8 0 15 6 15 14 0 17 -14 28 -24 19z"/>
<path d="M1744 4090 c-57 -23 -73 -112 -29 -155 57 -57 165 -9 165 74 0 52
-85 103 -136 81z m86 -40 c59 -59 -27 -152 -93 -100 -32 26 -35 58 -6 94 25
32 70 35 99 6z"/>
<path d="M1750 3986 c0 -9 7 -16 16 -16 17 0 14 22 -4 28 -7 2 -12 -3 -12 -12z"/>
<path d="M3480 3975 c0 -9 5 -15 11 -13 6 2 11 8 11 13 0 5 -5 11 -11 13 -6 2
-11 -4 -11 -13z"/>
<path d="M4434 3205 c-7 -18 3 -35 21 -35 21 0 28 19 15 35 -16 19 -29 19 -36
0z"/>
<path d="M3981 3471 c-14 -25 13 -64 29 -41 15 23 12 60 -5 60 -8 0 -19 -8
-24 -19z"/>
<path d="M2010 3300 c0 -13 7 -20 20 -20 13 0 20 7 20 20 0 13 -7 20 -20 20
-13 0 -20 -7 -20 -20z"/>
<path d="M4135 2907 c-8 -12 -15 -29 -15 -39 0 -27 25 -21 41 10 7 15 15 30
17 33 1 4 -4 9 -12 12 -9 4 -22 -3 -31 -16z"/>
<path d="M4133 2340 c-48 -20 -58 -87 -17 -119 44 -34 86 -26 110 21 18 35 11
61 -23 88 -28 22 -37 23 -70 10z m51 -26 c9 -3 16 -16 16 -27 0 -19 -1 -20
-13 -3 -8 11 -19 15 -30 10 -25 -9 -17 -39 11 -39 29 -1 33 -19 4 -23 -30 -4
-52 14 -52 44 0 32 32 50 64 38z"/>
<path d="M3726 1942 c-2 -4 -1 -14 4 -22 7 -11 12 -12 21 -3 6 6 8 16 5 22 -8
13 -23 14 -30 3z"/>
<path d="M3954 2729 c34 -40 33 -64 -4 -101 -28 -27 -35 -30 -72 -24 -42 7
-42 7 -23 -14 11 -12 31 -20 49 -20 88 0 135 118 68 170 -37 30 -47 24 -18
-11z"/>
<path d="M3913 2687 c-1 -23 3 -34 12 -34 20 0 27 25 15 48 -16 28 -25 23 -27
-14z"/>
<path d="M4218 2723 c-42 -3 -58 -8 -58 -18 0 -11 12 -15 45 -15 25 0 45 -4
45 -10 0 -5 -20 -10 -45 -10 -33 0 -45 -4 -45 -15 0 -12 14 -15 64 -15 71 0
89 12 84 57 -3 31 -5 31 -90 26z"/>
<path d="M4228 2613 c-103 -5 -101 -23 2 -23 64 0 80 3 80 15 0 8 -1 14 -2 13
-2 -1 -38 -4 -80 -5z"/>
<path d="M3950 2115 c8 -10 30 -15 61 -15 37 0 49 4 49 15 0 12 -13 15 -61 15
-54 0 -60 -2 -49 -15z"/>
<path d="M3681 4604 c-27 -34 -26 -47 2 -80 19 -21 29 -26 50 -20 54 13 73 59
41 104 -22 31 -67 29 -93 -4z m67 -6 c19 -19 14 -56 -8 -63 -24 -8 -50 10 -50
34 0 19 19 41 35 41 6 0 16 -5 23 -12z"/>
<path d="M2320 4500 c-30 -30 -26 -82 10 -123 17 -19 30 -44 30 -56 0 -12 11
-33 25 -46 23 -24 31 -25 135 -25 78 0 119 4 139 15 33 16 81 70 81 89 0 8 9
25 21 40 20 25 23 26 139 26 115 0 119 -1 122 -22 2 -14 15 -29 35 -38 l33
-15 0 -153 c0 -139 -2 -156 -20 -179 -11 -14 -20 -41 -20 -59 0 -31 -3 -34
-42 -45 -70 -19 -90 -32 -120 -78 -21 -35 -28 -57 -28 -97 0 -49 -2 -53 -30
-62 -16 -6 -39 -26 -50 -44 -40 -63 -7 -146 65 -164 36 -9 91 22 110 62 22 46
12 86 -31 123 -31 28 -34 35 -34 84 0 77 29 116 100 140 68 23 90 42 90 79 0
16 10 42 21 58 21 28 22 35 15 187 -6 130 -5 163 7 187 28 53 -14 115 -68 102
-13 -3 -27 -15 -30 -26 -6 -19 -15 -20 -129 -20 -138 0 -142 -2 -185 -87 -30
-61 -61 -73 -178 -73 -73 0 -104 4 -121 16 -27 19 -28 48 -2 81 58 74 -25 188
-90 123z m82 -45 c15 -33 -3 -75 -32 -75 -30 0 -56 45 -42 75 16 34 58 34 74
0z m698 -30 c10 -12 10 -18 0 -30 -7 -8 -18 -15 -25 -15 -7 0 -18 7 -25 15
-10 12 -10 18 0 30 7 8 18 15 25 15 7 0 18 -7 25 -15z m-192 -832 c12 -24 4
-43 -18 -43 -23 0 -44 26 -36 45 7 21 43 19 54 -2z"/>
<path d="M2357 4424 c-8 -8 1 -24 14 -24 5 0 9 7 9 15 0 15 -12 20 -23 9z"/>
<path d="M2647 4470 c-32 -30 -46 -50 -36 -50 8 0 25 14 37 30 16 22 31 30 52
30 32 0 42 23 14 34 -10 4 -33 -11 -67 -44z"/>
<path d="M2514 4409 c-3 -6 -2 -15 2 -19 12 -12 38 5 30 19 -9 14 -23 14 -32
0z"/>
<path d="M4070 4343 c0 -6 25 -38 56 -70 100 -105 197 -254 269 -413 16 -37
31 -58 33 -49 5 25 -77 191 -147 297 -59 90 -210 259 -211 235z"/>
<path d="M3167 4283 c-11 -11 -8 -253 3 -253 6 0 10 38 10 95 0 55 5 103 12
114 17 28 -4 66 -25 44z"/>
<path d="M2092 3968 c4 -30 43 -33 43 -3 0 13 -8 21 -23 23 -20 3 -23 0 -20
-20z"/>
<path d="M2202 3898 c-8 -8 -12 -46 -12 -103 0 -79 3 -94 20 -110 11 -10 20
-29 20 -42 0 -53 70 -81 118 -47 30 21 30 76 0 104 -26 24 -55 26 -85 5 -21
-14 -23 -14 -38 9 -13 20 -15 37 -8 98 l8 73 91 3 c79 2 94 0 117 -18 27 -21
27 -23 27 -138 0 -64 -4 -123 -8 -130 -23 -36 -77 -62 -128 -62 -52 0 -53 1
-109 65 -55 62 -75 77 -75 55 0 -5 30 -41 68 -80 66 -69 68 -70 118 -70 41 0
58 6 95 32 24 18 47 37 51 43 4 5 8 70 8 143 0 131 0 133 -26 157 -25 23 -34
25 -133 25 -70 0 -111 -4 -119 -12z m136 -220 c18 -18 15 -43 -8 -63 -16 -15
-25 -16 -44 -7 -29 13 -39 47 -19 67 17 18 54 20 71 3z"/>
<path d="M1266 3891 c-3 -5 1 -14 8 -20 16 -13 32 2 21 19 -8 12 -22 13 -29 1z"/>
<path d="M3034 3851 c-36 -22 -58 -75 -49 -114 11 -43 61 -82 105 -82 44 0 76
24 96 72 28 64 -26 143 -98 143 -13 0 -37 -9 -54 -19z m105 -28 c11 -10 24
-32 27 -50 5 -27 1 -37 -24 -63 -17 -16 -40 -30 -52 -30 -25 0 -80 51 -80 75
0 22 27 72 42 78 27 11 67 6 87 -10z"/>
<path d="M3048 3803 c-23 -6 -24 -58 -2 -67 36 -14 83 -6 95 16 10 18 8 24
-11 40 -21 17 -46 21 -82 11z m87 -33 c0 -11 -13 -16 -47 -18 -36 -2 -48 0
-48 11 0 23 12 28 55 25 28 -2 40 -8 40 -18z"/>
<path d="M2351 3831 c-12 -12 -21 -32 -21 -45 0 -27 33 -56 62 -56 43 0 76 72
45 98 -27 23 -65 24 -86 3z m63 -27 c9 -8 16 -21 16 -27 0 -8 -3 -7 -9 2 -5 8
-19 12 -35 9 -27 -5 -38 15 -13 25 20 9 25 8 41 -9z"/>
<path d="M3390 3788 c-77 -39 -106 -130 -66 -206 30 -57 68 -73 171 -70 l90 3
3 45 c10 148 9 157 -28 195 -29 30 -80 55 -115 55 -6 0 -31 -10 -55 -22z m102
-75 c22 -20 23 -70 1 -95 -31 -35 -101 -15 -104 30 -5 69 56 108 103 65z"/>
<path d="M3997 3642 c-26 -28 -21 -61 9 -73 21 -7 31 -6 45 7 25 22 24 61 0
74 -27 14 -35 13 -54 -8z"/>
<path d="M3713 3583 c-18 -7 -16 -23 2 -23 8 0 15 7 15 15 0 8 -1 15 -2 14 -2
0 -9 -3 -15 -6z"/>
<path d="M966 3548 c-14 -50 -19 -175 -7 -182 6 -4 11 -4 11 1 0 8 15 111 25
171 4 24 2 32 -8 32 -8 0 -17 -10 -21 -22z"/>
<path d="M3702 3528 c6 -18 28 -21 28 -4 0 9 -7 16 -16 16 -9 0 -14 -5 -12
-12z"/>
<path d="M2431 3516 c-8 -10 -11 -26 -7 -42 5 -20 12 -25 33 -22 14 2 31 11
37 21 23 36 -36 76 -63 43z"/>
<path d="M3562 3468 c-17 -17 -15 -42 8 -81 26 -44 18 -82 -22 -107 -29 -18
-30 -18 -80 16 -36 25 -61 34 -90 34 -27 0 -45 6 -54 18 -10 13 -17 15 -31 6
-10 -6 -18 -19 -18 -29 0 -10 -14 -32 -32 -50 -36 -36 -57 -102 -48 -148 11
-50 51 -105 95 -127 61 -31 74 -28 67 20 -5 39 -4 40 24 40 25 0 29 -4 29 -29
0 -17 5 -33 10 -36 14 -9 77 40 85 66 12 38 -63 95 -109 83 -40 -10 -66 4 -66
35 0 50 45 69 77 31 22 -25 109 -27 159 -4 96 46 121 171 50 247 -28 30 -37
32 -54 15z"/>
<path d="M2977 3449 c-19 -26 -10 -58 19 -71 44 -20 86 46 52 80 -19 19 -55
14 -71 -9z"/>
<path d="M1188 3415 c-9 -21 -8 -28 7 -45 24 -27 51 -25 70 4 23 34 5 66 -36
66 -22 0 -32 -6 -41 -25z"/>
<path d="M4140 3402 c-8 -2 -21 -11 -27 -20 -43 -54 36 -113 82 -62 33 37 -8
97 -55 82z"/>
<path d="M1162 3090 c-93 -24 -156 -59 -160 -86 -6 -44 19 -45 113 -6 80 32
99 36 175 36 91 -1 149 -18 280 -83 86 -43 59 -13 -55 61 -91 59 -191 98 -249
97 -17 0 -64 -9 -104 -19z"/>
<path d="M1907 3083 c-13 -12 -7 -33 8 -33 8 0 15 9 15 20 0 20 -11 26 -23 13z"/>
<path d="M2580 2971 c0 -18 17 -38 25 -30 12 14 8 44 -7 47 -13 2 -18 -3 -18
-17z"/>
<path d="M3659 2931 c-47 -48 -34 -85 19 -57 31 16 42 34 42 67 0 28 -27 23
-61 -10z"/>
<path d="M1252 2924 c-14 -10 -22 -25 -22 -45 0 -32 -3 -34 -31 -19 -34 19
-22 -10 26 -61 39 -42 45 -54 45 -93 0 -25 -5 -57 -10 -72 l-11 -27 75 6 c84
6 107 16 191 82 33 26 78 56 100 68 l40 20 -70 18 c-137 36 -191 47 -252 54
-53 6 -63 10 -63 26 0 10 11 26 25 35 24 16 59 13 140 -11 11 -3 2 4 -20 15
-49 24 -131 26 -163 4z m102 -133 c3 -5 -1 -14 -9 -21 -8 -7 -15 -18 -15 -25
0 -21 41 -65 60 -65 26 0 54 44 48 75 -4 19 -1 25 13 25 34 0 24 -57 -15 -96
-40 -40 -56 -42 -91 -11 -26 22 -43 82 -32 112 7 16 32 20 41 6z"/>
<path d="M2222 2898 c-5 -7 -9 -44 -7 -83 4 -116 61 -196 114 -159 31 22 29
77 -5 103 -28 22 -64 28 -64 11 0 -6 7 -13 15 -16 8 -4 15 -16 15 -28 0 -17 2
-18 10 -6 12 19 35 -2 27 -24 -12 -32 -44 -18 -66 29 -12 25 -21 49 -21 55 0
5 20 10 44 10 57 0 76 8 76 30 0 37 -75 65 -99 36 -7 -9 -17 -13 -22 -10 -15
9 -10 34 6 34 9 0 12 6 9 15 -7 18 -18 19 -32 3z m68 -68 c0 -5 -4 -10 -10
-10 -5 0 -10 5 -10 10 0 6 5 10 10 10 6 0 10 -4 10 -10z"/>
<path d="M3700 2865 c-8 -9 -8 -15 -2 -15 12 0 26 19 19 26 -2 2 -10 -2 -17
-11z"/>
<path d="M2380 2756 c0 -64 4 -107 11 -111 6 -4 12 -5 13 -4 7 10 -7 219 -15
219 -5 0 -9 -47 -9 -104z"/>
<path d="M1943 2813 c-31 -6 -29 -23 2 -23 18 0 25 -5 25 -20 0 -11 3 -20 8
-20 10 0 7 64 -4 66 -5 0 -19 -1 -31 -3z"/>
<path d="M2557 2792 c-37 -41 -7 -104 50 -104 27 0 63 32 63 57 0 7 -9 24 -21
39 -24 31 -68 35 -92 8z"/>
<path d="M2200 2692 c0 -38 37 -67 164 -127 192 -92 341 -154 387 -161 23 -4
55 -19 72 -33 66 -56 167 -19 203 74 22 59 8 110 -41 154 -31 27 -43 31 -95
31 -52 0 -64 -4 -93 -30 -19 -16 -40 -30 -46 -30 -6 0 -11 -9 -11 -20 0 -27
18 -25 42 5 45 57 113 70 169 32 70 -47 70 -147 0 -194 -38 -26 -69 -29 -95
-10 -16 12 -14 13 18 9 29 -3 41 1 66 26 58 59 24 142 -57 142 -54 -1 -103
-47 -103 -97 0 -52 -112 -18 -397 117 -116 56 -144 73 -157 99 -19 35 -26 39
-26 13z m722 -179 c57 -51 -43 -126 -106 -80 -16 12 -17 17 -6 38 31 60 74 76
112 42z"/>
<path d="M2840 2485 c0 -23 4 -26 28 -23 19 2 27 9 27 23 0 14 -8 21 -27 23
-24 3 -28 0 -28 -23z"/>
<path d="M2930 2650 c0 -5 5 -10 10 -10 6 0 10 5 10 10 0 6 -4 10 -10 10 -5 0
-10 -4 -10 -10z"/>
<path d="M1697 2466 c-8 -20 20 -43 35 -28 14 14 3 42 -16 42 -7 0 -16 -6 -19
-14z"/>
<path d="M3137 2456 c-10 -8 -27 -12 -37 -9 -24 6 -29 -24 -6 -33 13 -5 96 39
96 51 0 10 -36 4 -53 -9z"/>
<path d="M1143 2192 c46 -51 60 -144 27 -180 -18 -19 -50 -21 -50 -3 0 4 -19
18 -42 31 -35 20 -57 24 -125 24 -90 1 -116 -11 -97 -42 9 -13 31 -18 105 -22
52 -3 102 -9 111 -14 19 -9 31 -33 22 -47 -11 -18 44 -8 77 14 57 38 73 94 46
160 -17 38 -64 97 -79 97 -6 0 -4 -8 5 -18z"/>
<path d="M2502 1958 c-30 -30 3 -77 40 -57 22 12 24 55 2 63 -22 8 -28 8 -42
-6z"/>
<path d="M2264 1725 c-8 -21 2 -45 19 -45 20 0 40 27 33 45 -7 19 -45 20 -52
0z m36 -15 c0 -5 -4 -10 -10 -10 -5 0 -10 5 -10 10 0 6 5 10 10 10 6 0 10 -4
10 -10z"/>
<path d="M3736 1715 c-9 -26 12 -57 37 -53 17 2 22 10 22 33 0 25 -4 31 -26
33 -17 2 -29 -3 -33 -13z"/>
<path d="M3496 1633 c-12 -12 -6 -33 9 -33 8 0 15 6 15 14 0 17 -14 28 -24 19z"/>
<path d="M2636 1207 c-26 -19 -17 -51 16 -55 31 -4 48 29 28 53 -15 18 -21 19
-44 2z"/>
<path d="M2899 1103 c-4 -200 3 -569 11 -577 26 -26 30 20 28 325 -3 290 -4
314 -20 317 -16 3 -18 -6 -19 -65z"/>
<path d="M2821 753 c0 -225 4 -417 9 -428 5 -12 9 160 9 408 1 278 -2 427 -9
427 -7 0 -10 -142 -9 -407z"/>
<path d="M3335 840 c-4 -7 -2 -16 5 -20 6 -4 10 -18 8 -31 -2 -18 -10 -25 -31
-27 -16 -2 -26 -8 -24 -15 12 -33 87 12 87 53 0 24 -36 55 -45 40z"/>
</g>
</svg>